<svg width="32" height="75" viewBox="0 0 32 75" fill="none" xmlns="http://www.w3.org/2000/svg">
<path d="M30.5597 0.656059L25.245 0.541411C24.865 0.532077 24.549 0.71073 24.501 0.960063L20.845 20.1828C18.469 20.7201 14.9063 21.0441 11.3837 19.5734C13.9623 18.3441 15.7503 15.7214 15.7503 12.6734C15.7503 8.44941 12.3263 5.02539 8.10229 5.02539C4.66363 5.02539 1.75702 7.29472 0.79435 10.4174C-0.65365 14.6307 1.52638 17.9894 1.52638 17.9894C5.95171 24.2587 11.9264 26.1401 17.0757 26.1401C17.9971 26.1401 18.889 26.0747 19.7437 25.9681L10.6371 73.8467C10.5784 74.1534 10.9463 74.4374 11.413 74.4481L16.7277 74.5627C17.1077 74.5707 17.4237 74.3921 17.4704 74.1427L31.333 1.25606C31.3997 0.949392 31.0264 0.665392 30.5597 0.656059Z" fill="white"/>
</svg>
