<svg width="30" height="76" viewBox="0 0 30 76" fill="none" xmlns="http://www.w3.org/2000/svg">
<path d="M4.79728 68.8264C6.26795 67.9067 7.97328 67.4135 9.54261 66.6666C12.8266 65.1196 15.5853 63.013 17.552 59.9332C19.3066 57.1863 20.3333 54.0264 20.8599 50.8264C21.9866 43.9598 21.0133 36.7199 18.84 30.1466C18.1333 28.0132 17.2813 25.9332 16.2493 23.9332C14.1026 19.7866 14.5306 20.1332 12.7759 15.9199C12.7759 15.9199 10.688 5.93056 15.8546 1.49989C15.8546 1.49989 21.3373 -1.13478 21.5373 4.73456C21.7533 11.0666 22.9786 18.3066 25.2893 24.6132C28.8653 34.3866 31.024 46.5332 27.408 56.3067C24.9346 62.9863 19.36 67.7196 12.94 70.4796C11.084 71.2796 9.11728 71.8666 7.31195 72.7863C6.04528 73.4135 4.81863 74.1332 3.63863 74.9196C2.63329 75.5863 1.64796 76.7734 0.93996 75.1863C0.70396 74.6666 0.746627 74.0802 0.93996 73.5468C1.65063 71.5734 3.03328 69.9196 4.79728 68.8264Z" fill="white"/>
</svg>
