<?xml version="1.0" encoding="UTF-8"?>
<svg id="Layer_1" data-name="Layer 1" xmlns="http://www.w3.org/2000/svg" viewBox="0 0 557.95 418.51">
  <defs>
    <style>
      .cls-1 {
        fill: #00caff;
      }

      .cls-2 {
        fill: #00247c;
      }

      .cls-3 {
        fill: #0055bc;
      }

      .cls-4 {
        fill: #008eff;
      }

      .cls-5 {
        fill: #0071dd;
      }
    </style>
  </defs>
  <rect class="cls-5" x="291.12" y="36.91" width="1.63" height="39.52"/>
  <path class="cls-3" d="M304.26,68.49c0,6.81-5.52,12.33-12.33,12.33s-12.33-5.52-12.33-12.33,5.52-14.65,12.33-14.65,12.33,7.84,12.33,14.65Z"/>
  <rect class="cls-5" x="277.75" y="66.31" width="28.39" height="2.18"/>
  <rect class="cls-4" x="278.55" y="68.49" width="26.78" height="5.84"/>
  <rect class="cls-3" x="280.05" y="75.42" width="23.79" height="21.88"/>
  <rect class="cls-5" x="277.75" y="74.34" width="28.39" height="2.18"/>
  <rect class="cls-3" x="248.04" y="147.44" width="87.79" height="60.21"/>
  <path class="cls-3" d="M335.26,138.04c0,23.93-19.4,43.33-43.33,43.33s-43.33-19.4-43.33-43.33,19.4-51.5,43.33-51.5,43.33,27.57,43.33,51.5Z"/>
  <rect class="cls-5" x="237.7" y="143.47" width="108.48" height="4.16"/>
  <rect class="cls-5" x="237.7" y="134.64" width="108.48" height="4.16"/>
  <rect class="cls-4" x="240.03" y="138.81" width="103.82" height="4.67"/>
  <path class="cls-5" d="M238.78,172.3h47.68v12.09h-47.68c-3.34,0-6.04-2.71-6.04-6.04h0c0-3.34,2.71-6.04,6.04-6.04Z" transform="translate(437.95 -81.26) rotate(90)"/>
  <path class="cls-1" d="M255.41,203.36v-45.83c0-2.31,1.88-4.19,4.19-4.19s4.19,1.88,4.19,4.19v45.83h-8.39Z"/>
  <path class="cls-5" d="M271.48,172.3h47.68v12.09h-47.68c-3.34,0-6.04-2.71-6.04-6.04h0c0-3.34,2.71-6.04,6.04-6.04Z" transform="translate(470.65 -113.96) rotate(90)"/>
  <path class="cls-1" d="M288.11,203.36v-45.83c0-2.31,1.88-4.19,4.19-4.19s4.19,1.88,4.19,4.19v45.83h-8.39Z"/>
  <path class="cls-5" d="M304.18,172.3h47.68v12.09h-47.68c-3.34,0-6.04-2.71-6.04-6.04h0c0-3.34,2.71-6.04,6.04-6.04Z" transform="translate(503.35 -146.65) rotate(90)"/>
  <path class="cls-1" d="M320.81,203.36v-45.83c0-2.31,1.88-4.19,4.19-4.19s4.19,1.88,4.19,4.19v45.83h-8.39Z"/>
  <g>
    <path class="cls-5" d="M315.93,102.85c6.2,7.6,11.12,16.09,12.5,25.98.3,1.97-2.18,3.56-5.36,3.56h0c-3.18,0-5.77-1.88-5.92-4.22-1.1-11-3.44-20.98-7.79-31.18,2.83,2.01,4.15,3.21,6.57,5.85Z"/>
    <path class="cls-5" d="M296.16,91.4c.99,12.03,1.37,24.08,1.52,36.14.02,2.68-2.57,4.85-5.75,4.85h0c-3.18,0-5.77-2.17-5.75-4.85.15-12.07.53-24.12,1.52-36.14,3.33-.53,5.12-.53,8.45,0Z"/>
    <path class="cls-5" d="M274.52,97c-4.35,10.19-6.69,20.17-7.79,31.18-.15,2.34-2.74,4.22-5.92,4.22h0c-3.18,0-5.66-1.59-5.36-3.56,1.38-9.89,6.31-18.38,12.5-25.98,2.42-2.64,3.75-3.84,6.57-5.85Z"/>
  </g>
  <g>
    <path class="cls-1" d="M323.48,130.18c-1.61,0-2.95-.93-3.02-2.08-1.23-10.55-4.04-19.52-9.33-28.76,1.34,1.18,1.99,1.81,3.22,3.15,6.33,6.96,10.95,16.37,11.89,25.81.12,1.04-1.14,1.88-2.75,1.88Z"/>
    <path class="cls-1" d="M291.94,130.18c-1.61,0-2.93-1.15-2.92-2.57.05-12.01.24-24.02.77-36.02,1.71-.15,2.6-.15,4.32,0,.53,12,.72,24.01.77,36.02,0,1.42-1.31,2.57-2.92,2.57Z"/>
    <path class="cls-1" d="M260.4,130.18c-1.61,0-2.87-.84-2.75-1.88.95-9.44,5.56-18.85,11.89-25.81,1.23-1.34,1.87-1.97,3.22-3.15-5.3,9.24-8.1,18.21-9.33,28.76-.08,1.15-1.41,2.08-3.02,2.08Z"/>
  </g>
  <rect class="cls-2" x="164.8" y="199.19" width="254.29" height="187.66"/>
  <path class="cls-5" d="M208.61,204.21h0c4.27,0,7.73,3.46,7.73,7.73v29.39h-15.46v-29.39c0-4.27,3.46-7.73,7.73-7.73Z"/>
  <path class="cls-5" d="M229.44,204.21h0c4.27,0,7.73,3.46,7.73,7.73v29.39h-15.46v-29.39c0-4.27,3.46-7.73,7.73-7.73Z"/>
  <path class="cls-5" d="M250.27,204.21h0c4.27,0,7.73,3.46,7.73,7.73v29.39h-15.46v-29.39c0-4.27,3.46-7.73,7.73-7.73Z"/>
  <path class="cls-5" d="M271.11,204.21h0c4.27,0,7.73,3.46,7.73,7.73v29.39h-15.46v-29.39c0-4.27,3.46-7.73,7.73-7.73Z"/>
  <path class="cls-5" d="M291.94,204.21h0c4.27,0,7.73,3.46,7.73,7.73v29.39h-15.46v-29.39c0-4.27,3.46-7.73,7.73-7.73Z"/>
  <path class="cls-5" d="M312.77,204.21h0c4.27,0,7.73,3.46,7.73,7.73v29.39h-15.46v-29.39c0-4.27,3.46-7.73,7.73-7.73Z"/>
  <path class="cls-5" d="M333.6,204.21h0c4.27,0,7.73,3.46,7.73,7.73v29.39h-15.46v-29.39c0-4.27,3.46-7.73,7.73-7.73Z"/>
  <path class="cls-5" d="M354.44,204.21h0c4.27,0,7.73,3.46,7.73,7.73v29.39h-15.46v-29.39c0-4.27,3.46-7.73,7.73-7.73Z"/>
  <path class="cls-5" d="M375.27,204.21h0c4.27,0,7.73,3.46,7.73,7.73v29.39h-15.46v-29.39c0-4.27,3.46-7.73,7.73-7.73Z"/>
  <path class="cls-1" d="M208.28,207.24h.64c4.09,0,7.41,3.32,7.41,7.41v26.68h-15.46v-26.68c0-4.09,3.32-7.41,7.41-7.41Z"/>
  <path class="cls-1" d="M229.12,207.24h.64c4.09,0,7.41,3.32,7.41,7.41v26.68h-15.46v-26.68c0-4.09,3.32-7.41,7.41-7.41Z"/>
  <path class="cls-1" d="M249.95,207.24h.64c4.09,0,7.41,3.32,7.41,7.41v26.68h-15.46v-26.68c0-4.09,3.32-7.41,7.41-7.41Z"/>
  <path class="cls-1" d="M270.78,207.24h.64c4.09,0,7.41,3.32,7.41,7.41v26.68h-15.46v-26.68c0-4.09,3.32-7.41,7.41-7.41Z"/>
  <path class="cls-1" d="M291.62,207.24h.64c4.09,0,7.41,3.32,7.41,7.41v26.68h-15.46v-26.68c0-4.09,3.32-7.41,7.41-7.41Z"/>
  <path class="cls-1" d="M312.45,207.24h.64c4.09,0,7.41,3.32,7.41,7.41v26.68h-15.46v-26.68c0-4.09,3.32-7.41,7.41-7.41Z"/>
  <path class="cls-1" d="M333.28,207.24h.64c4.09,0,7.41,3.32,7.41,7.41v26.68h-15.46v-26.68c0-4.09,3.32-7.41,7.41-7.41Z"/>
  <path class="cls-1" d="M354.12,207.24h.64c4.09,0,7.41,3.32,7.41,7.41v26.68h-15.46v-26.68c0-4.09,3.32-7.41,7.41-7.41Z"/>
  <path class="cls-1" d="M374.95,207.24h.64c4.09,0,7.41,3.32,7.41,7.41v26.68h-15.46v-26.68c0-4.09,3.32-7.41,7.41-7.41Z"/>
  <rect class="cls-5" x="177.01" y="138.35" width="1.63" height="39.52"/>
  <rect class="cls-5" x="405.05" y="138.35" width="1.63" height="39.52"/>
  <rect class="cls-3" x="196.99" y="280.77" width="189.91" height="4.08"/>
  <rect class="cls-3" x="196.99" y="240.96" width="189.91" height="4.08"/>
  <rect class="cls-4" x="189.89" y="192.63" width="204.1" height="6.45"/>
  <path class="cls-3" d="M192.44,173.61c0,8.07-6.54,14.62-14.62,14.62s-14.62-6.54-14.62-14.62,6.54-17.76,14.62-17.76,14.62,9.68,14.62,17.76Z"/>
  <path class="cls-3" d="M420.49,173.61c0,8.07-6.54,14.62-14.62,14.62s-14.62-6.54-14.62-14.62,6.54-17.76,14.62-17.76,14.62,9.68,14.62,17.76Z"/>
  <rect class="cls-3" x="114.9" y="316.82" width="5.13" height="70.03"/>
  <path class="cls-2" d="M128.83,291.05c0,25.57-5.09,46.31-11.37,46.31s-11.37-20.73-11.37-46.31,5.09-113.55,11.37-113.55,11.37,87.98,11.37,113.55Z"/>
  <rect class="cls-3" x="142.03" y="316.82" width="5.13" height="70.03"/>
  <path class="cls-2" d="M155.96,311.87c0,14.08-5.09,25.49-11.37,25.49s-11.37-11.41-11.37-25.49,5.09-62.51,11.37-62.51,11.37,48.43,11.37,62.51Z"/>
  <rect class="cls-3" x="461.26" y="335.17" width="5.12" height="51.68" transform="translate(927.65 722.02) rotate(-180)"/>
  <path class="cls-2" d="M452.48,316.15c0,18.87,5.08,34.18,11.34,34.18,6.26,0,11.34-15.3,11.34-34.18,0-18.87-5.08-83.81-11.34-83.81-6.26,0-11.34,64.93-11.34,83.81Z"/>
  <rect class="cls-3" x="434.18" y="335.17" width="5.12" height="51.68" transform="translate(873.49 722.02) rotate(-180)"/>
  <path class="cls-2" d="M425.4,331.51c0,10.39,5.08,18.81,11.34,18.81,6.26,0,11.34-8.42,11.34-18.81,0-10.39-5.08-46.13-11.34-46.13-6.26,0-11.34,35.74-11.34,46.13Z"/>
  <polygon class="cls-5" points="386.85 266.61 291.35 231.38 197.02 266.61 197.02 266.61 197.02 281.11 386.86 281.11 386.86 266.61 386.85 266.61"/>
  <polygon class="cls-1" points="204.43 273.71 204.43 271.75 291.36 239.28 379.45 271.78 379.45 273.71 204.43 273.71"/>
  <g>
    <rect class="cls-5" x="230.93" y="281.11" width="13.03" height="105.74"/>
    <rect class="cls-5" x="258.18" y="281.11" width="13.03" height="105.74"/>
    <rect class="cls-5" x="285.42" y="281.11" width="13.03" height="105.74"/>
    <rect class="cls-5" x="312.67" y="281.11" width="13.03" height="105.74"/>
    <rect class="cls-5" x="339.92" y="281.11" width="13.03" height="105.74"/>
  </g>
  <rect class="cls-3" x="164.8" y="366.92" width="254.29" height="19.93"/>
  <rect class="cls-2" x="164.8" y="370.65" width="254.29" height="16.21"/>
  <rect class="cls-3" x="164.8" y="374.31" width="254.29" height="12.54"/>
  <rect class="cls-2" x="164.8" y="378.75" width="254.29" height="8.1"/>
  <rect class="cls-3" x="164.8" y="382.8" width="254.29" height="4.05"/>
  <rect class="cls-3" x="393.02" y="181.32" width="26.06" height="205.53"/>
  <rect class="cls-3" x="164.8" y="181.32" width="26.06" height="205.53"/>
  <rect class="cls-4" x="393.02" y="351.59" width="26.06" height="35.26"/>
  <rect class="cls-4" x="164.8" y="351.59" width="26.06" height="35.26"/>
  <rect class="cls-5" x="386.55" y="180.41" width="38.64" height="1.37"/>
  <rect class="cls-5" x="386.55" y="173.9" width="38.64" height="1.37"/>
  <rect class="cls-4" x="387.91" y="175.28" width="35.91" height="5.14"/>
  <rect class="cls-5" x="158.51" y="180.41" width="38.64" height="1.37"/>
  <rect class="cls-5" x="158.51" y="173.9" width="38.64" height="1.37"/>
  <rect class="cls-4" x="159.87" y="175.28" width="35.91" height="5.14"/>
  <path class="cls-3" d="M392.51,361.98h26.72c3.51,0,6.35,2.85,6.35,6.35v18.52h-39.43v-18.52c0-3.51,2.85-6.35,6.35-6.35Z"/>
  <path class="cls-3" d="M164.47,361.98h26.72c3.51,0,6.35,2.85,6.35,6.35v18.52h-39.43v-18.52c0-3.51,2.85-6.35,6.35-6.35Z"/>
  <g>
    <path class="cls-1" d="M168,190.61h2.92v159.52c0,.8-.65,1.46-1.46,1.46h0c-.8,0-1.46-.65-1.46-1.46v-159.52h0Z" transform="translate(338.92 542.2) rotate(180)"/>
    <path class="cls-1" d="M173.58,190.61h2.92v159.52c0,.8-.65,1.46-1.46,1.46h0c-.8,0-1.46-.65-1.46-1.46v-159.52h0Z" transform="translate(350.08 542.2) rotate(180)"/>
    <path class="cls-1" d="M179.16,190.61h2.92v159.52c0,.8-.65,1.46-1.46,1.46h0c-.8,0-1.46-.65-1.46-1.46v-159.52h0Z" transform="translate(361.23 542.2) rotate(180)"/>
    <path class="cls-1" d="M184.73,190.61h2.92v159.52c0,.8-.65,1.46-1.46,1.46h0c-.8,0-1.46-.65-1.46-1.46v-159.52h0Z" transform="translate(372.38 542.2) rotate(180)"/>
  </g>
  <g>
    <path class="cls-1" d="M396.23,190.61h2.92v159.52c0,.8-.65,1.46-1.46,1.46h0c-.8,0-1.46-.65-1.46-1.46v-159.52h0Z" transform="translate(795.37 542.2) rotate(180)"/>
    <path class="cls-1" d="M401.8,190.61h2.92v159.52c0,.8-.65,1.46-1.46,1.46h0c-.8,0-1.46-.65-1.46-1.46v-159.52h0Z" transform="translate(806.53 542.2) rotate(180)"/>
    <path class="cls-1" d="M407.38,190.61h2.92v159.52c0,.8-.65,1.46-1.46,1.46h0c-.8,0-1.46-.65-1.46-1.46v-159.52h0Z" transform="translate(817.68 542.2) rotate(180)"/>
    <path class="cls-1" d="M412.96,190.61h2.92v159.52c0,.8-.65,1.46-1.46,1.46h0c-.8,0-1.46-.65-1.46-1.46v-159.52h0Z" transform="translate(828.83 542.2) rotate(180)"/>
  </g>
</svg>